# xmcd
#
# Track frame offsets:
#	150
#	13700
#	31010
#	48352
#	63727
#	82495
#	99140
#	113210
#	133905
#	149012
#	165077
#	179067
#	198390
#	213702
#	228570
#	244642
#	261140
#	275395
#	288915
#	307092
#
# Disc length: 4353 seconds
#
# Revision: 4
# Processed by: cddbd v1.5.1PL0 Copyright (c) Steve Scherf et al.
# Submitted via: audiograbber 1.83.01
#
DISCID=2e10ff14
DTITLE=Various Artist - Boot Scootin' 9
DYEAR=1900
DGENRE=Country
TTITLE0=Alan Jackson - Tropical Depression
TTITLE1=George Strait - One Night At A Time
TTITLE2=Joe Diffie - Honky Tonk Attitude (Extended Club mix)
TTITLE3=Patty Loveless - Jealous Bone
TTITLE4=Tim McGraw - Don't Take The Girl
TTITLE5=Jimmy Buffett - Volcano
TTITLE6=Tracy Lawrence - If The World Had A Front Porch
TTITLE7=Garth Brooks - Ain't Going Down (Til The Sun Comes Up)
TTITLE8=Shenandoah - Next To You, Next To Me
TTITLE9=Mindy McCready - Ten Thousand Angels
TTITLE10=Willie Nelson - Funny How Time Slips Away
TTITLE11=Vince Gill - South Side Of Dixie
TTITLE12=Eddy Raven - Zydeco Lady
TTITLE13=Carlene Carter - Every Little Thing
TTITLE14=Alabama - Feels So Right
TTITLE15=Ronnie Milsap - True Believer (Edited Version)
TTITLE16=Mary-Chapin Carpenter - Passionate Kisses
TTITLE17=Charlie Rich - Behind Closed Doors
TTITLE18=Grid - Swamp Thing (Radio Mix)
TTITLE19=Twister Alley - Dance (Club Mix)
EXTD=
EXTT0=
EXTT1=
EXTT2=
EXTT3=
EXTT4=
EXTT5=
EXTT6=
EXTT7=
EXTT8=
EXTT9=
EXTT10=
EXTT11=
EXTT12=
EXTT13=
EXTT14=
EXTT15=
EXTT16=
EXTT17=
EXTT18=
EXTT19=
PLAYORDER=
